<?xml version="1.0" encoding="iso-8859-1"?>
<svg version="1.1" xmlns="http://www.w3.org/2000/svg" xmlns:xlink="http://www.w3.org/1999/xlink" viewBox="0 0 297 297" style="enable-background:new 0 0 297 297;" xml:space="preserve">
<g>
	<path d="M148.5,0C66.617,0,0,66.617,0,148.5C0,230.383,66.617,297,148.5,297C230.383,297,297,230.383,297,148.5
		C297,66.617,230.383,0,148.5,0z M148.5,271.5c-67.654,0-123-55.346-123-123s55.346-123,123-123s123,55.346,123,123
		S216.154,271.5,148.5,271.5z"/>
	<path d="M197.5,99h-23.363c1.765-2.161,2.863-4.895,2.863-7.909c0-6.893-5.607-12.5-12.5-12.5h-4.863
		c1.765-2.161,2.863-4.895,2.863-7.909c0-6.893-5.607-12.5-12.5-12.5h-2c1.765-2.161,2.863-4.895,2.863-7.909
		c0-6.893-5.607-12.5-12.5-12.5h-5c-6.893,0-12.5,5.607-12.5,12.5c0,3.014,1.097,5.748,2.863,7.909h-2
		c-6.893,0-12.5,5.607-12.5,12.5c0,3.014,1.097,5.748,2.863,7.909h-4.863c-6.893,0-12.5,5.607-12.5,12.5
		c0,3.014,1.097,5.748,2.863,7.909H99.5c-6.893,0-12.5,5.607-12.5,12.5c0,3.014,1.097,5.748,2.863,7.909h-7.726
		C77.607,119.409,75,122.016,75,125.546v22.727c0,3.53,2.607,6.137,7.137,6.137h7.726c-1.765,2.161-2.863,4.895-2.863,7.909
		c0,6.893,5.607,12.5,12.5,12.5h3.863c-1.765,2.161-2.863,4.895-2.863,7.909c0,6.893,5.607,12.5,12.5,12.5h5
		c-1.765,2.161-2.863,4.895-2.863,7.909c0,6.893,5.607,12.5,12.5,12.5h20c6.893,0,12.5-5.607,12.5-12.5
		c0-3.014-1.097-5.748-2.863-7.909h5c6.893,0,12.5-5.607,12.5-12.5c0-3.014-1.097-5.748-2.863-7.909h3.863
		c6.893,0,12.5-5.607,12.5-12.5c0-3.014-1.097-5.748-2.863-7.909h7.726c4.529,0,7.137-2.607,7.137-6.137v-22.727
		c0-3.53-2.607-6.137-7.137-6.137h-7.726c1.765-2.161,2.863-4.895,2.863-7.909C210,104.607,204.393,99,197.5,99z"/>
</g>
</svg>
